<svg xmlns="http://www.w3.org/2000/svg" viewBox="0 0 64 64"><path fill="#c18e5c" d="M32 14c-9.389 0-17-2.686-17-6v22.078c0 3.314 7.611 6 17 6s17-2.686 17-6V8c0 3.314-7.611 6-17 6z"/><path fill="#c1c8d1" d="M49 27v3.078c0 3.314-7.611 6-17 6s-17-2.686-17-6V27c-3.124 1.381-5 3.15-5 5.078 0 4.418 9.85 8 22 8s22-3.582 22-8c0-1.928-1.876-3.697-5-5.078z"/><path fill="#88929f" d="M32 40.078c-12.15 0-22-3.582-22-8v16c0 4.418 9.85 8 22 8s22-3.582 22-8v-16c0 4.419-9.85 8-22 8z"/><path fill="#cda57d" d="M15 8v22.078c0 3.314 7.611 6 17 6 .957 0 1.89-.035 2.804-.088C41.078 29.973 45 21.454 45 12c0-.046-.003-.091-.003-.136C41.878 13.169 37.216 14 32 14c-9.389 0-17-2.686-17-6z"/><ellipse cx="32" cy="8" fill="#976949" rx="17" ry="6"/><path fill="#e47c6f" d="M32 56.078c-7.444 0-14.019-1.346-18-3.403V63h36V52.675c-3.981 2.058-10.556 3.403-18 3.403z"/><path fill="#ac876d" d="M43.974 3.742C40.901 2.666 36.672 2 32 2c-9.389 0-17 2.686-17 6s7.611 6 17 6c5.216 0 9.878-.831 12.997-2.136a33.577 33.577 0 0 0-1.023-8.122z"/><path fill="#e6e9ed" d="M34.804 35.99c-.914.054-1.847.088-2.804.088-9.389 0-17-2.686-17-6V27c-3.124 1.381-5 3.15-5 5.078 0 4.129 8.602 7.526 19.645 7.954a32.698 32.698 0 0 0 5.159-4.042z"/><path fill="#a0a8b2" d="M12.5 45a31.977 31.977 0 0 0 17.145-4.968C18.602 39.605 10 36.207 10 32.078v12.815c.826.064 1.658.107 2.5.107z"/><path d="M54 24c2.206 0 4-1.794 4-4s-1.794-4-4-4h-2v2h2c1.103 0 2 .897 2 2s-.897 2-2 2h-4V8c0-4.547-9.274-7-18-7S14 3.453 14 8v14h-4c-1.103 0-2-.897-2-2s.897-2 2-2h2v-2h-2c-2.206 0-4 1.794-4 4s1.794 4 4 4h4v2.364c-4.107 1.976-5 4.181-5 5.714v16c0 1.788 1.375 3.616 4 5.158V63h2v-8.745c3.881 1.682 9.592 2.823 17 2.823s13.119-1.142 17-2.823V63h2v-9.764c2.625-1.542 4-3.37 4-5.158v-16c0-1.533-.893-3.738-5-5.714V24zM32 3c9.913 0 16 2.912 16 5s-6.087 5-16 5-16-2.912-16-5 6.087-5 16-5zm1 32.06V14.982c.668-.014 1.335-.04 2-.082v15.178h2V14.731a41.732 41.732 0 0 0 2-.269v20.071c-1.775.294-3.786.482-6 .527zm-6-20.329v15.347h2V14.9c.665.042 1.332.068 2 .082V35.06c-2.214-.045-4.225-.232-6-.526V14.463c.657.103 1.322.195 2 .268zM16 22V11.324c1.625 1.223 4.111 2.152 7 2.77V34.14c-4.457-1.03-7-2.715-7-4.062V24h5v-2zm16 33.078c-12.375 0-21-3.689-21-7V35.796c3.236 2.928 10.364 5.282 21 5.282s17.764-2.353 21-5.282v12.282c0 3.311-8.625 7-21 7zm21-23c0 3.311-8.625 7-21 7s-21-3.689-21-7c0-1.15 1.085-2.37 3-3.453v1.453c0 4.547 9.274 7 18 7s18-2.453 18-7v-1.453c1.915 1.083 3 2.303 3 3.453zm-5-2c0 1.346-2.543 3.032-7 4.062V14.094c2.889-.617 5.375-1.546 7-2.77V22h-5v2h5z"/></svg>