<svg xmlns="http://www.w3.org/2000/svg" viewBox="0 0 64 64"><path fill="#c1c8d1" d="M6 41V23a6 6 0 1 1 12 0v18z"/><path fill="#cdd3da" d="M16.731 19.319A5.984 5.984 0 0 0 12 17a6 6 0 0 0-6 6v13.93c5.661-3.885 9.687-10.227 10.731-17.611z"/><path fill="#2a74c7" d="M6 23h12v6H6zM6 35h12v6H6z"/><path fill="#c1c8d1" d="M4 41h16v4H4z"/><path fill="#5590d2" d="M15.943 23H6v6h7.358a26.128 26.128 0 0 0 2.585-6zM8.459 35H6v1.93A24.27 24.27 0 0 0 8.459 35z"/><path fill="#c1c8d1" d="M26 41V23a6 6 0 1 1 12 0v18z"/><path fill="#cdd3da" d="M36.731 19.319A5.984 5.984 0 0 0 32 17a6 6 0 0 0-6 6v13.93c5.661-3.885 9.687-10.227 10.731-17.611z"/><path fill="#2a74c7" d="M26 23h12v6H26zM26 35h12v6H26z"/><path fill="#e47c6f" d="M57 18v13c3.102 1.861 5 5.213 5 8.831V60a2 2 0 0 1-2 2H48a2 2 0 0 1-2-2V39.831c0-3.618 1.898-6.97 5-8.831V18z"/><path fill="#c66b60" d="M46 60v-7h-7.5c-1.381 0-2.5 1.119-2.5 2.5S34.881 58 33.5 58H31a2 2 0 1 0 0 4h17a2 2 0 0 1-2-2z"/><path fill="#c1c8d1" d="M62 39.831c0-.28-.032-.555-.054-.831H46.054c-.022.276-.054.551-.054.831V56h16zM51 22h6v6h-6z"/><path fill="#ebf7fe" d="M50 43h8v9h-8z"/><path fill="#88929f" d="M2 45h44v4H2z"/><path fill="#c1c8d1" d="M24 41h16v4H24z"/><path fill="#5590d2" d="M35.943 23H26v6h7.358a26.128 26.128 0 0 0 2.585-6zM28.459 35H26v1.93A24.27 24.27 0 0 0 28.459 35z"/><path d="M60 63c1.654 0 3-1.346 3-3V39.831c0-3.753-1.902-7.295-5-9.38V18a1 1 0 0 0-1-1h-2V5c0-2.206-1.794-4-4-4H25c-2.206 0-4 1.794-4 4v3h-3c-3.859 0-7 3.14-7 7v1.08c-3.386.488-6 3.401-6 6.92v17H4a1 1 0 0 0-1 1v3H2a1 1 0 0 0-1 1v4a1 1 0 0 0 1 1h43v2h-6.5c-1.93 0-3.5 1.57-3.5 3.5 0 .827-.673 1.5-1.5 1.5H31c-1.654 0-3 1.346-3 3s1.346 3 3 3zm.796-25H47.204c.516-2.531 2.059-4.791 4.31-6.143A1 1 0 0 0 52 31v-2h4v2a1 1 0 0 0 .485.857c2.252 1.352 3.795 3.612 4.311 6.143zM47 40h14v15H47zm5-17h4v4h-4zm4-2h-4v-2h4zM23 5c0-1.103.897-2 2-2h26c1.103 0 2 .897 2 2v12h-2a1 1 0 0 0-1 1v12.451a11.361 11.361 0 0 0-5 9.38V44h-4v-3a1 1 0 0 0-1-1h-1V23c0-3.519-2.614-6.432-6-6.92V15c0-3.86-3.141-7-7-7h-3zm9 13a5.01 5.01 0 0 1 4.899 4h-9.798A5.01 5.01 0 0 1 32 18zm-5 6h10v4H27zm0 6h10v4H27zm0 6h10v4H27zm12 6v2H25v-2zM18 10h8c2.757 0 5 2.243 5 5v1.08c-3.386.488-6 3.401-6 6.92v17h-1a1 1 0 0 0-1 1v3h-2v-3a1 1 0 0 0-1-1h-1V23c0-3.519-2.614-6.432-6-6.92V15c0-2.757 2.243-5 5-5zm-1 14v4H7v-4zm0 6v4H7v-4zm-5-12a5.01 5.01 0 0 1 4.899 4H7.101A5.01 5.01 0 0 1 12 18zM7 36h10v4H7zm-2 6h14v2H5zm-2 6v-2h42v2zm27 12c0-.551.448-1 1-1h2.5c1.93 0 3.5-1.57 3.5-3.5 0-.827.673-1.5 1.5-1.5H45v6c0 .352.072.686.184 1H31c-.552 0-1-.449-1-1zm30 1H48c-.552 0-1-.449-1-1v-3h14v3c0 .551-.448 1-1 1z"/><path d="M58 42h-8a1 1 0 0 0-1 1v9a1 1 0 0 0 1 1h8a1 1 0 0 0 1-1v-9a1 1 0 0 0-1-1zm-1 9h-6v-7h6z"/></svg>