<svg xmlns="http://www.w3.org/2000/svg" viewBox="0 0 64 64"><path fill="#c18e5c" d="M34 23h12v8H34z"/><path fill="#cda57d" d="M34 23v7c4.841 0 9.001-2.872 10.898-7z"/><path fill="#ebf7fe" d="M38 23h4v4h-4z"/><path fill="#c18e5c" d="M46 23h12v8H46z"/><path fill="#cda57d" d="M46 23v7c4.841 0 9.001-2.872 10.898-7z"/><path fill="#ebf7fe" d="M50 23h4v4h-4z"/><path fill="#c18e5c" d="M40 13h12v10H40z"/><path fill="#cda57d" d="M40 13v7c4.841 0 9.001-2.872 10.898-7z"/><path fill="#78b761" d="M4 43V33a4 4 0 0 1 4-4 2 2 0 0 0 2-2v-6a4 4 0 0 1 4-4h12a4 4 0 0 1 4 4v22z"/><path fill="#93c581" d="M23.641 17H14a4 4 0 0 0-4 4v6a2 2 0 0 1-2 2 4 4 0 0 0-4 4v8.293C14.079 38.685 21.919 29.066 23.641 17z"/><path fill="#a0a8b2" d="M2 43h60v4H2z"/><circle cx="14" cy="46" r="5" fill="#88929f"/><circle cx="51" cy="46" r="5" fill="#88929f"/><path fill="#c1c8d1" d="M30 31h30v12H30z"/><path fill="#c7e2fb" d="M8 29h16v-8H10v6a2 2 0 0 1-2 2z"/><path fill="#f9d18f" d="M4 39h4v4H4zM56 39h4v4h-4z"/><path fill="#ebf7fe" d="M44 13h4v4h-4zM22.814 21H10v6a2 2 0 0 1-2 2h11.495a32.297 32.297 0 0 0 3.319-8z"/><path d="M62 42h-1V31a1 1 0 0 0-1-1h-1v-7a1 1 0 0 0-1-1h-5v-9a1 1 0 0 0-1-1H40a1 1 0 0 0-1 1v9h-5a1 1 0 0 0-1 1v7h-2v-9c0-2.757-2.243-5-5-5H14c-2.757 0-5 2.243-5 5v6a1 1 0 0 1-1 1c-2.757 0-5 2.243-5 5v9H2a1 1 0 0 0-1 1v4a1 1 0 0 0 1 1h6.35c.826 2.327 3.043 4 5.65 4s4.824-1.673 5.65-4h25.7c.826 2.327 3.043 4 5.65 4s4.824-1.673 5.65-4H62a1 1 0 0 0 1-1v-4a1 1 0 0 0-1-1zm-5 0v-2h2v2zm0-12H47v-6h2v3a1 1 0 0 0 1 1h4a1 1 0 0 0 1-1v-3h2zm-4-6v2h-2v-2zm-8-10h2v2h-2zm-4 8v-8h2v3a1 1 0 0 0 1 1h4a1 1 0 0 0 1-1v-3h2v8zm0 2v2h-2v-2zm-6 0h2v3a1 1 0 0 0 1 1h4a1 1 0 0 0 1-1v-3h2v6H35zm24 8v6h-3a1 1 0 0 0-1 1v2.54A5.97 5.97 0 0 0 51 40c-1.771 0-3.36.776-4.46 2H31V32zm-48-5v-5h12v6H10.816c.112-.314.184-.648.184-1zm-3 3h16a1 1 0 0 0 1-1v-8a1 1 0 0 0-1-1H11.184A2.996 2.996 0 0 1 14 18h12c1.654 0 3 1.346 3 3v21H18.46c-1.099-1.224-2.688-2-4.46-2s-3.36.776-4.46 2H9v-3a1 1 0 0 0-1-1H5v-5c0-1.654 1.346-3 3-3zM5 40h2v2H5zm-2 6v-2h5.35A5.976 5.976 0 0 0 8 46zm11 4c-2.206 0-4-1.794-4-4s1.794-4 4-4 4 1.794 4 4-1.794 4-4 4zm6-4c0-.702-.128-1.373-.35-2h25.7a5.976 5.976 0 0 0-.35 2zm31 4c-2.206 0-4-1.794-4-4s1.794-4 4-4 4 1.794 4 4-1.794 4-4 4zm10-4h-4c0-.702-.128-1.373-.35-2H61z"/><path d="M21 32h4v2h-4z"/></svg>