<svg xmlns="http://www.w3.org/2000/svg" viewBox="0 0 64 64"><circle cx="27" cy="27" r="25" fill="#976949"/><circle cx="27" cy="27" r="21" fill="#c18e5c"/><path fill="#cda57d" d="M44.764 15.835C41.046 9.933 34.49 6 27 6 15.402 6 6 15.402 6 27c0 8.15 4.652 15.2 11.437 18.68 13.597-5.262 23.904-16.327 27.327-29.845z"/><path fill="#ac876d" d="M25 33h4v4h-4z"/><path fill="#c18e5c" d="M42.745 51.675 39 49h-.117c-3.534 1.913-7.581 3-11.883 3s-8.348-1.087-11.883-3H15l-3.745 2.675A7.772 7.772 0 0 0 8 58h36l.115-5.074a7.779 7.779 0 0 0-1.37-1.251z"/><path fill="#976949" d="M21 37h12v4H21z"/><path fill="#ac876d" d="M25 41h4v4h-4z"/><circle cx="47" cy="47" r="15" fill="#88929f"/><circle cx="47" cy="47" r="11" fill="#ebf7fe"/><path d="M52.51 31.998c.319-1.641.49-3.317.49-4.998C53 12.663 41.337 1 27 1S1 12.663 1 27c0 9.281 4.891 17.436 12.227 22.038l-2.553 1.824A8.786 8.786 0 0 0 7 58a1 1 0 0 0 1 1h28.453c2.819 2.481 6.505 4 10.547 4 8.822 0 16-7.178 16-16 0-6.884-4.379-12.749-10.49-15.002zM3 27C3 13.767 13.767 3 27 3s24 10.767 24 24a24.22 24.22 0 0 1-.414 4.42 15.949 15.949 0 0 0-1.968-.338C48.87 29.742 49 28.375 49 27c0-12.131-9.869-22-22-22S5 14.869 5 27s9.869 22 22 22c1.375 0 2.742-.131 4.082-.382.068.671.19 1.324.338 1.968-1.452.27-2.934.414-4.42.414C13.767 51 3 40.233 3 27zm28.021 19.587A20.09 20.09 0 0 1 27 47c-6.065 0-11.497-2.723-15.168-7H20v1a1 1 0 0 0 1 1h3v3a1 1 0 0 0 1 1h4a1 1 0 0 0 1-1v-3h1.811a15.928 15.928 0 0 0-.79 4.587zM28 34v2h-2v-2zm4 4v2H22v-2zm-6 4h2v2h-2zm7-6h-3v-2h2v-2H22v2h2v2h-3a1 1 0 0 0-1 1v1h-9.686a19.858 19.858 0 0 1-3.263-10h39.92a19.948 19.948 0 0 1-.383 3.021c-5.186.133-9.758 2.739-12.588 6.687V37a1 1 0 0 0-1-1zM10.314 16h33.372a19.858 19.858 0 0 1 3.263 10H7.051a19.858 19.858 0 0 1 3.263-10zm1.518-2C15.503 9.723 20.935 7 27 7s11.497 2.723 15.168 7zm.004 38.488 3.306-2.361a25.834 25.834 0 0 0 16.856 2.383A15.974 15.974 0 0 0 34.53 57H9.074a6.794 6.794 0 0 1 2.762-4.512zM47 61c-7.72 0-14-6.28-14-14s6.28-14 14-14 14 6.28 14 14-6.28 14-14 14z"/><path d="M47 35c-6.617 0-12 5.383-12 12s5.383 12 12 12 12-5.383 12-12-5.383-12-12-12zm1 21.949V55h-2v1.949c-4.717-.471-8.479-4.232-8.949-8.949H39v-2h-1.949c.471-4.717 4.232-8.479 8.949-8.949V39h2v-1.949c4.717.471 8.479 4.232 8.949 8.949H55v2h1.949c-.47 4.717-4.232 8.479-8.949 8.949z"/><path d="M48 41h-2v6c0 .266.105.52.293.707l4 4 1.414-1.414L48 46.586z"/></svg>