<svg xmlns="http://www.w3.org/2000/svg" viewBox="0 0 61 60"><g fill="none" fill-rule="nonzero" transform="translate(0 -1)"><circle cx="17" cy="54" r="6" fill="#673ab7"/><path fill="#4527a0" d="M17 48c-.506.003-1.01.07-1.5.2a5.992 5.992 0 0 1 0 11.606A6 6 0 1 0 17 48z"/><path fill="#673ab7" d="M17 48a6 6 0 0 0-6 6 6 6 0 1 1 .84-11.94 5.95 5.95 0 0 0 4.3 2.87v.01c.572.918.87 1.979.86 3.06z"/><path fill="#4527a0" d="M16.14 44.94v-.01a5.95 5.95 0 0 1-4.3-2.87 5.879 5.879 0 0 0-2.811.281 5.929 5.929 0 0 0 4.111 2.589v.01c.572.918.87 1.979.86 3.06a6 6 0 0 0-5.945 5.227A5.98 5.98 0 0 0 11 54a6 6 0 0 1 6-6 5.687 5.687 0 0 0-.86-3.06z"/><path fill="#673ab7" d="M29 48a5.992 5.992 0 0 1-6 6 6 6 0 0 0-6-6 5.687 5.687 0 0 1 .86-3.06v-.01a5.95 5.95 0 0 0 4.3-2.87A6.007 6.007 0 0 1 29 48z"/><path fill="#4527a0" d="M28.61 45.88a5.988 5.988 0 0 0-6.45-3.82c-.058.1-.126.187-.188.28a5.994 5.994 0 0 1 .973 10.887c.035.256.053.514.055.773a5.993 5.993 0 0 0 5.61-8.12z"/><path fill="#673ab7" d="M11 39a5.973 5.973 0 0 0 .84 3.06 5.988 5.988 0 0 0-6.45 3.82A5.99 5.99 0 0 1 8 34.5c1.416 0 2.786.5 3.87 1.41A5.823 5.823 0 0 0 11 39z"/><path fill="#4527a0" d="M11.87 35.91A6.021 6.021 0 0 0 8 34.5a5.914 5.914 0 0 0-1.5.214c.868.22 1.677.63 2.367 1.2A5.823 5.823 0 0 0 8 39a5.973 5.973 0 0 0 .84 3.06 5.97 5.97 0 0 0-5.508 2.183A5.956 5.956 0 0 0 5.39 45.88a5.988 5.988 0 0 1 6.45-3.82A5.973 5.973 0 0 1 11 39a5.823 5.823 0 0 1 .87-3.09z"/><path fill="#673ab7" d="M32 40.5a5.955 5.955 0 0 1-3.39 5.38 5.988 5.988 0 0 0-6.45-3.82c.55-.926.841-1.983.84-3.06a5.906 5.906 0 0 0-.86-3.09A6 6 0 0 1 32 40.5z"/><path fill="#4527a0" d="M29.96 36A5.98 5.98 0 0 0 26 34.5a5.878 5.878 0 0 0-1.5.215A5.949 5.949 0 0 1 29 40.5a5.93 5.93 0 0 1-1.33 3.741c.4.492.717 1.046.94 1.639A5.972 5.972 0 0 0 29.96 36z"/><path fill="#673ab7" d="M23 39c0 2.98-2.19 5.508-5.14 5.93-.57.093-1.15.093-1.72 0A5.989 5.989 0 0 1 11 39a5.823 5.823 0 0 1 .87-3.09 5.621 5.621 0 0 1 1.44-1.63c0-.01.01-.01.01-.02a6 6 0 0 1 7.37.01v.01c.582.444 1.07.998 1.44 1.63h.01c.566.93.864 2 .86 3.09z"/><path fill="#4527a0" d="M22.14 35.91h-.01a5.621 5.621 0 0 0-1.44-1.63v-.01a5.842 5.842 0 0 0-5.19-1.06c.795.199 1.54.56 2.19 1.06v.01c.582.444 1.07.998 1.44 1.63h.01c.566.93.864 2 .86 3.09a5.993 5.993 0 0 1-4.5 5.8c.21.054.424.096.64.126.57.093 1.15.093 1.72 0a5.988 5.988 0 0 0 4.28-9.02z"/><path fill="#673ab7" d="M14 31.5c0 .961-.234 1.908-.68 2.76 0 .01-.01.01-.01.02a5.621 5.621 0 0 0-1.44 1.63 6 6 0 0 0-7.83.09A5.995 5.995 0 0 1 8 25.5a5.991 5.991 0 0 1 6 6z"/><path fill="#4527a0" d="M11.87 26.91a5.973 5.973 0 0 0-5.406-1.205c.881.219 1.703.63 2.406 1.205A6.035 6.035 0 0 1 11 31.5c0 .961-.234 1.908-.68 2.76 0 .01-.01.01-.01.02a5.533 5.533 0 0 0-.544.506 6.074 6.074 0 0 1 2.1 1.124 5.621 5.621 0 0 1 1.44-1.63c0-.01.01-.01.01-.02A5.963 5.963 0 0 0 14 31.5a6.035 6.035 0 0 0-2.13-4.59z"/><path fill="#673ab7" d="M29.96 36a5.983 5.983 0 0 0-7.82-.09h-.01a5.621 5.621 0 0 0-1.44-1.63v-.01a5.965 5.965 0 0 1 1.44-7.35 6.076 6.076 0 0 1 4.54-1.43L23 28.53l.56.67a4.342 4.342 0 0 0 6.14.57l1.55-1.28A6.107 6.107 0 0 1 29.96 36z"/><path fill="#4527a0" d="m31.25 28.49-1.55 1.28c-.259.212-.54.394-.841.541a5.954 5.954 0 0 1-.909 4.533A6.026 6.026 0 0 1 29.96 36a6.107 6.107 0 0 0 1.29-7.51z"/><path fill="#673ab7" d="M20 31.5c0 .966.236 1.917.69 2.77a6 6 0 0 0-7.37-.01c.446-.852.68-1.799.68-2.76a6.035 6.035 0 0 0-2.13-4.59 6 6 0 0 1 2.69-2.39 5.985 5.985 0 0 1 4.88 0 5.917 5.917 0 0 1 2.69 2.4A5.965 5.965 0 0 0 20 31.5z"/><path fill="#4527a0" d="M22.13 26.92a5.917 5.917 0 0 0-2.69-2.4A5.835 5.835 0 0 0 17 24c-.506.003-1.01.07-1.5.2a5.917 5.917 0 0 1 3.63 2.725 5.965 5.965 0 0 0-1.93 6.092 5.951 5.951 0 0 1 3.49 1.253 5.965 5.965 0 0 1 1.44-7.35zM14 33c-.069 0-.134.015-.2.017-.112.43-.273.848-.478 1.243a6 6 0 0 1 2.18-1.05A5.988 5.988 0 0 0 14 33z"/><path fill="#9e9e9e" d="M51.32 18.04a8.762 8.762 0 0 0-3.85.9L45.12 17l-.85-.7-3.25-2.7-.84-.7-.2-.15-8.05-6.67a2.427 2.427 0 0 1-1.27.83c-1.57.421-3.168.738-4.78.95l10.19 8.44.85.7 3.06 2.54.2.16.84.7 2.87 2.38a6.274 6.274 0 0 0-.42 2.24c0 3.86 3.52 6.98 7.85 6.98s7.85-3.12 7.85-6.98-3.51-6.98-7.85-6.98zm3.62 8.12a3.746 3.746 0 0 1-2.39 1.69 4.271 4.271 0 0 1-4.65-1.65 2.422 2.422 0 0 1-.31-1.44c.047-.438.201-.857.45-1.22a4.038 4.038 0 0 1 3.37-1.47 4.625 4.625 0 0 1 2.09.49c.528.277.981.679 1.32 1.17a2.4 2.4 0 0 1 .12 2.43z"/><path fill="#545c60" d="M51.32 2c-4.33 0-7.85 3.12-7.85 6.98.002.766.144 1.525.42 2.24l-2.87 2.38 3.25 2.7.85.7 2.35-1.94a8.762 8.762 0 0 0 3.85.9c4.34 0 7.85-3.13 7.85-6.98S55.66 2 51.32 2zm3.54 8.11a3.676 3.676 0 0 1-2.39 1.7 4.266 4.266 0 0 1-4.65-1.66 2.375 2.375 0 0 1-.31-1.43c.048-.44.203-.862.45-1.23a4.049 4.049 0 0 1 3.38-1.46 4.487 4.487 0 0 1 2.08.49c.532.271.987.674 1.32 1.17.482.723.528 1.653.12 2.42zM41.02 20.4l-.84.7-.2.15-8.73 7.24-1.55 1.28a4.342 4.342 0 0 1-6.14-.57l-.56-.67 3.67-3.04 9.4-7.79.85-.7 3.06 2.54.2.16z"/><path fill="#60a917" d="M31.93 6.08a2.427 2.427 0 0 1-1.27.83c-1.57.421-3.168.738-4.78.95-3.276.413-6.58.556-9.88.43A18.83 18.83 0 0 1 18.3 14a41.775 41.775 0 0 1 1.2 9.74V24c.001.175-.02.35-.06.52a5.985 5.985 0 0 0-4.88 0 2.18 2.18 0 0 1-.06-.52 40.339 40.339 0 0 0-1.72-9.98l-.02-.02c-.97-2.86-2.62-5.47-5.23-6.42-2.42-.31-3.95-.62-4.02-.63a2.5 2.5 0 0 1 .98-4.9c.01 0 1.56.31 3.96.61h.01c4.75.62 13.78 1.36 20.88-.57a2.5 2.5 0 0 1 2.59 3.99z"/><path fill="#549414" d="M16.015 8.316c-1.026.01-2.039 0-3.015-.026A18.83 18.83 0 0 1 15.3 14a41.775 41.775 0 0 1 1.2 9.74V24.026a5.835 5.835 0 0 1 2.94.494c.04-.17.061-.345.06-.52v-.26A41.775 41.775 0 0 0 18.3 14a18.891 18.891 0 0 0-2.285-5.684zM32.41 3.84a2.494 2.494 0 0 0-3.07-1.75c-.35.095-.708.179-1.067.261a2.491 2.491 0 0 1 .657 3.729 2.427 2.427 0 0 1-1.27.83c-1.57.421-3.168.738-4.78.95-2.03.262-4.075.41-6.122.442 3.048.088 6.097-.06 9.122-.442a37.084 37.084 0 0 0 4.78-.95 2.427 2.427 0 0 0 1.27-.83c.516-.623.695-1.46.48-2.24z"/><path fill="#f5f5f5" d="M17 57a3 3 0 0 1-3-3 1 1 0 0 1 2 0c0 .552.448 1 1 1a1 1 0 0 1 0 2zM17 42a3 3 0 0 1-3-3 1 1 0 0 1 2 0c0 .552.448 1 1 1a1 1 0 0 1 0 2z"/><g fill="#000"><path d="M1 31.5A6.983 6.983 0 0 0 2.657 36 6.948 6.948 0 0 0 4.2 46.356c-.133.538-.2 1.09-.2 1.644a7.006 7.006 0 0 0 6.069 6.931 6.992 6.992 0 0 0 13.862 0 6.967 6.967 0 0 0 5.869-8.575 6.947 6.947 0 0 0 1.548-10.351A6.982 6.982 0 0 0 32.79 33.2a1 1 0 1 0-1.939-.488 5 5 0 0 1-1 1.962 6.909 6.909 0 0 0-7.474-.147 6.991 6.991 0 0 0-.881-.882 4.953 4.953 0 0 1-.479-2.561 1 1 0 0 0-.913-1.079.99.99 0 0 0-1.08.913 6.819 6.819 0 0 0 .026 1.39 6.976 6.976 0 0 0-4.1 0c.033-.268.05-.538.05-.808a7 7 0 0 0-1.824-4.7 4.975 4.975 0 0 1 7.354-.331 1 1 0 1 0 1.42-1.408 6.917 6.917 0 0 0-1.45-1.114c0-.269-.027-1.831-.235-4.038a1 1 0 1 0-1.991.188c.124 1.3.179 2.374.2 3.065A7.1 7.1 0 0 0 17 23a6.941 6.941 0 0 0-1.527.183c-.034-.731-.111-1.9-.29-3.309a1 1 0 0 0-1.985.252c.165 1.269.265 2.545.3 3.824a7 7 0 0 0-1.867 1.583A6.978 6.978 0 0 0 1 31.5zm2 9a5 5 0 0 1 1.7-3.747 5.142 5.142 0 0 1 5.879-.526 6.971 6.971 0 0 0-.267 4.827 7.016 7.016 0 0 0-5.331 3.4A4.988 4.988 0 0 1 3 40.5zM6 48a4.854 4.854 0 0 1 .326-1.764 4.977 4.977 0 0 1 4.954-3.214 7.013 7.013 0 0 0 4.208 2.809c.2.399.342.824.421 1.263a7 7 0 0 0-5.815 5.814A5 5 0 0 1 6 48zm11 11a5 5 0 1 1 0-10 5 5 0 0 1 0 10zm6.906-6.092a7 7 0 0 0-5.815-5.814c.08-.439.221-.864.421-1.263a7.011 7.011 0 0 0 4.208-2.81 4.984 4.984 0 0 1 4.958 3.224c.215.56.324 1.155.322 1.755a5 5 0 0 1-4.094 4.908zM29.3 36.751a4.962 4.962 0 0 1-.278 7.7 7.022 7.022 0 0 0-5.331-3.4 6.979 6.979 0 0 0-.264-4.823 5.131 5.131 0 0 1 5.873.523zM22 39a5 5 0 1 1-10 0 5 5 0 0 1 10 0zM8 26.5a5.079 5.079 0 0 1 3.223 1.172A5.023 5.023 0 0 1 13 31.5a4.957 4.957 0 0 1-.5 2.147 7.152 7.152 0 0 0-.874.875 6.927 6.927 0 0 0-7.475.149A4.986 4.986 0 0 1 8 26.5zM1 18h2a1 1 0 0 0 0-2H1a1 1 0 0 0 0 2zM9 18a1 1 0 0 0 0-2H7a1 1 0 0 0 0 2zM13 18h2a1 1 0 0 0 0-2h-2a1 1 0 0 0 0 2zM19 18h2a1 1 0 0 0 0-2h-2a1 1 0 0 0 0 2zM27 18a1 1 0 0 0 0-2h-2a1 1 0 0 0 0 2zM33 18a1 1 0 0 0 0-2h-2a1 1 0 0 0 0 2zM52.712 12.779a4.7 4.7 0 0 0 3.038-2.215 3.354 3.354 0 0 0-.184-3.438 4.588 4.588 0 0 0-1.679-1.495 5.564 5.564 0 0 0-2.548-.6h-.029a4.964 4.964 0 0 0-4.171 1.9 3.72 3.72 0 0 0-.619 1.679 3.365 3.365 0 0 0 .435 2.048 4.974 4.974 0 0 0 4.388 2.288c.461 0 .921-.056 1.369-.167zm-4.026-3.128a1.361 1.361 0 0 1-.179-.821c.03-.276.126-.54.28-.77a3.11 3.11 0 0 1 2.525-1.032h.018a3.545 3.545 0 0 1 1.627.374c.384.2.712.491.955.849.276.426.296.968.052 1.413a2.706 2.706 0 0 1-1.732 1.174 3.311 3.311 0 0 1-3.546-1.187z"/><path d="M51.32 16.96c4.88 0 8.85-3.58 8.85-7.98S56.2 1 51.32 1s-8.85 3.58-8.85 7.98a7.2 7.2 0 0 0 .259 1.9l-1.712 1.42-7.8-6.457a3.487 3.487 0 0 0-4.14-4.718c-6.953 1.89-15.822 1.152-20.488.543H8.54a62.88 62.88 0 0 1-3.816-.592l-.039-.007a3.5 3.5 0 0 0-1.372 6.862l.118.021c1.192.224 2.489.428 3.856.605 2.443.947 3.809 3.65 4.526 5.764a1 1 0 0 0 1.894-.642c-1.244-3.668-3.262-6.1-5.835-7.038a.994.994 0 0 0-.215-.053 67.765 67.765 0 0 1-3.857-.6l-.094-.018A1.5 1.5 0 1 1 4.3 3.031c.018 0 .037.007.056.009a65.08 65.08 0 0 0 3.974.611h.041c4.824.626 13.962 1.376 21.24-.6a1.5 1.5 0 1 1 .79 2.892 49.442 49.442 0 0 1-14.369 1.348.982.982 0 0 0-.9.511 1 1 0 0 0 .038 1.039 17.713 17.713 0 0 1 2.165 5.4 1 1 0 1 0 1.94-.484 23.232 23.232 0 0 0-1.543-4.432c2.62.034 5.238-.108 7.839-.425l9.778 8.1-12.987 10.76a1 1 0 0 0-.13 1.41l.555.665a5.3 5.3 0 0 0 4.132 1.948c1.25 0 2.46-.44 3.419-1.243l10.681-8.84 1.71 1.417a7.2 7.2 0 0 0-.259 1.9c0 4.4 3.97 7.98 8.85 7.98s8.85-3.58 8.85-7.98-3.97-7.98-8.85-7.98a9.779 9.779 0 0 0-3.693.733l-.936-.77.936-.772c1.172.48 2.426.73 3.693.732zM29.061 29a3.343 3.343 0 0 1-4.649-.342L36.917 18.3l2.534 2.1zm18.849-9.163a7.8 7.8 0 0 1 3.41-.8c3.778 0 6.85 2.683 6.85 5.98S55.1 31 51.32 31s-6.85-2.683-6.85-5.98a5.319 5.319 0 0 1 .354-1.886 1 1 0 0 0-.3-1.124L28.211 8.493a35.458 35.458 0 0 0 2.711-.618 3.458 3.458 0 0 0 1.025-.483l14.886 12.319a1 1 0 0 0 1.077.126zm-1.077-5.548-1.71 1.411-2.537-2.1 1.942-1.611a1 1 0 0 0 .3-1.124 5.319 5.319 0 0 1-.358-1.885c0-3.3 3.073-5.98 6.85-5.98s6.85 2.683 6.85 5.98-3.072 5.98-6.85 5.98a7.8 7.8 0 0 1-3.41-.8 1 1 0 0 0-1.077.129z"/><circle cx="41" cy="17" r="1"/><path d="M51.42 28.986c.462.001.922-.054 1.37-.163a4.7 4.7 0 0 0 3.038-2.216 3.352 3.352 0 0 0-.184-3.437 4.6 4.6 0 0 0-1.68-1.5 5.562 5.562 0 0 0-2.547-.6 4.919 4.919 0 0 0-4.2 1.9c-.34.5-.552 1.076-.617 1.677a3.357 3.357 0 0 0 .434 2.051 4.973 4.973 0 0 0 4.386 2.288zM48.864 24.1a3.109 3.109 0 0 1 2.526-1.032h.018a3.556 3.556 0 0 1 1.626.373 2.6 2.6 0 0 1 .955.848c.276.425.297.968.054 1.413a2.718 2.718 0 0 1-1.733 1.175 3.314 3.314 0 0 1-3.547-1.189 1.342 1.342 0 0 1-.177-.822c.029-.274.124-.537.278-.766z"/></g></g></svg>