<svg xmlns="http://www.w3.org/2000/svg" viewBox="0 0 64 64"><circle cx="4" cy="21" r="2" fill="#78b761"/><circle cx="39" cy="21" r="2" fill="#78b761"/><path fill="#c7e2fb" d="M53 47a9 9 0 0 1-9-9V21h18v17a9 9 0 0 1-9 9z"/><path fill="#ebf7fe" d="M59.98 21H44v17c0 1.654.454 3.199 1.233 4.531C53.406 40.449 59.612 31.665 59.98 21z"/><path fill="#78b761" d="M17 4a6.826 6.826 0 0 0-4.828-2H11v1.172A6.826 6.826 0 0 0 17.828 10H19V8.828A6.826 6.826 0 0 0 17 4zM28.5 6.5c.96-.96 2.263-1.5 3.621-1.5H33v.879A5.122 5.122 0 0 1 27.879 11H27v-.879c0-1.358.54-2.661 1.5-3.621z"/><g fill="#8f6af4"><circle cx="16" cy="20" r="6"/><circle cx="28" cy="20" r="6"/><circle cx="16" cy="42" r="6"/><circle cx="28" cy="42" r="6"/><circle cx="22" cy="53" r="6"/><circle cx="10" cy="31" r="6"/><circle cx="22" cy="31" r="6"/><circle cx="34" cy="31" r="6"/></g><path fill="#c1c8d1" d="m47 62 6-4 6 4z"/><path fill="#e47c6f" d="M44 38c0 4.971 4.029 9 9 9s9-4.029 9-9v-9H44z"/><path fill="#f5b95b" d="M52 10.801a4.945 4.945 0 0 0 2.569-3.162L55 6l.431 1.639a4.943 4.943 0 0 0 2.568 3.162H58l-.121.061a4.938 4.938 0 0 0-2.506 2.945L55 15l-.373-1.194a4.944 4.944 0 0 0-2.506-2.945zM37 50.801a4.945 4.945 0 0 0 2.569-3.162L40 46l.431 1.639a4.943 4.943 0 0 0 2.568 3.162H43l-.121.061a4.938 4.938 0 0 0-2.506 2.945L40 55l-.373-1.194a4.944 4.944 0 0 0-2.506-2.945z"/><path fill="#e9968c" d="M58.529 29H44v9c0 1.654.454 3.199 1.233 4.531 6.005-1.529 10.95-6.677 13.296-13.531z"/><path d="M34 38c3.86 0 7-3.14 7-7 0-3.739-2.948-6.793-6.641-6.982l1.682-1.719c.15.329.36.638.631.908 1.18 1.18 3.235 1.18 4.415 0a3.126 3.126 0 0 0-.939-5.061l1.439-1.439-1.414-1.414-3.5 3.5-.046.046-1.653 1.69c.012-.175.026-.35.026-.529 0-3.86-3.14-7-7-7-1.958 0-3.728.81-5 2.11v-.786c0-4.089.656-8.129 1.949-12.008l-1.897-.633A39.885 39.885 0 0 0 21 14.325v.786a6.977 6.977 0 0 0-5-2.11c-3.86 0-7 3.14-7 7 0 .61.086 1.199.234 1.764l-2.856-2.921-.05-.05-3.5-3.5-1.414 1.414 1.439 1.439a3.124 3.124 0 0 0-.939 5.061c1.179 1.179 3.235 1.179 4.414 0a3.1 3.1 0 0 0 .631-.908l1.781 1.82C5.48 24.715 3 27.571 3 31c0 3.86 3.14 7 7 7 .092 0 .182-.01.274-.014A6.957 6.957 0 0 0 9 42c0 3.86 3.14 7 7 7 .092 0 .182-.01.274-.014A6.957 6.957 0 0 0 15 53c0 3.86 3.14 7 7 7s7-3.14 7-7a6.957 6.957 0 0 0-1.274-4.014c.092.004.182.014.274.014 3.86 0 7-3.14 7-7a6.957 6.957 0 0 0-1.274-4.014c.092.004.182.014.274.014zm4.068-17.774.019-.019c.422-.424 1.162-.424 1.585 0a1.121 1.121 0 0 1 0 1.586 1.149 1.149 0 0 1-1.586 0 1.115 1.115 0 0 1-.018-1.567zM4.914 21.793a1.147 1.147 0 0 1-1.585 0 1.121 1.121 0 0 1 1.569-1.603l.037.038a1.118 1.118 0 0 1-.021 1.565zM16 27.413a7.037 7.037 0 0 0-.274-.427c.092.004.182.014.274.014s.182-.01.274-.014a7.037 7.037 0 0 0-.274.427zM22 26c2.757 0 5 2.243 5 5s-2.243 5-5 5-5-2.243-5-5 2.243-5 5-5zm-.274-1.986c.097-.138.187-.282.274-.427.087.145.177.289.274.427C22.182 24.01 22.092 24 22 24s-.182.01-.274.014zm6 2.972c.092.004.182.014.274.014s.182-.01.274-.014a7.037 7.037 0 0 0-.274.427 7.037 7.037 0 0 0-.274-.427zm-11.452 8.028C16.182 35.01 16.092 35 16 35s-.182.01-.274.014c.097-.138.187-.282.274-.427.087.145.177.289.274.427zM22 38c.092 0 .182-.01.274-.014a7.037 7.037 0 0 0-.274.427 7.037 7.037 0 0 0-.274-.427c.092.004.182.014.274.014zm6-3.413c.087.145.177.289.274.427C28.182 35.01 28.092 35 28 35s-.182.01-.274.014c.097-.138.187-.282.274-.427zM39 31c0 2.757-2.243 5-5 5s-5-2.243-5-5 2.243-5 5-5 5 2.243 5 5zM28 15c2.757 0 5 2.243 5 5s-2.243 5-5 5-5-2.243-5-5 2.243-5 5-5zm-12 0c2.757 0 5 2.243 5 5s-2.243 5-5 5-5-2.243-5-5 2.243-5 5-5zM5 31c0-2.757 2.243-5 5-5s5 2.243 5 5-2.243 5-5 5-5-2.243-5-5zm6 11c0-2.757 2.243-5 5-5s5 2.243 5 5-2.243 5-5 5-5-2.243-5-5zm11 3.587c.087.145.177.289.274.427C22.182 46.01 22.092 46 22 46s-.182.01-.274.014c.097-.138.187-.282.274-.427zM22 58c-2.757 0-5-2.243-5-5s2.243-5 5-5 5 2.243 5 5-2.243 5-5 5zm6-11c-2.757 0-5-2.243-5-5s2.243-5 5-5 5 2.243 5 5-2.243 5-5 5z"/><path d="M17.829 11H19a1 1 0 0 0 1-1V8.829c0-2.091-.814-4.057-2.293-5.536S14.263 1 12.171 1H11a1 1 0 0 0-1 1v1.171c0 2.091.814 4.057 2.293 5.536S15.737 11 17.829 11zM12 3h.171c1.557 0 3.021.606 4.122 1.707S18 7.271 18 8.829V9h-.171c-1.557 0-3.021-.606-4.122-1.707S12 4.729 12 3.171zM27 12h.879c1.635 0 3.172-.637 4.328-1.793S34 7.514 34 5.879V5a1 1 0 0 0-1-1h-.879c-1.635 0-3.172.637-4.328 1.793S26 8.486 26 10.121V11a1 1 0 0 0 1 1zm2.207-4.793a4.086 4.086 0 0 1 2.791-1.205c-.03 1.055-.456 2.042-1.205 2.791s-1.736 1.175-2.791 1.205a4.09 4.09 0 0 1 1.205-2.791zM62 20H44a1 1 0 0 0-1 1v17c0 5.177 3.954 9.446 9 9.949v9.516l-5.555 3.703A1 1 0 0 0 47 63h12a1 1 0 0 0 .555-1.832L54 57.465v-9.516c5.046-.503 9-4.773 9-9.949V21a1 1 0 0 0-1-1zm-1 2v6H45v-6zM50.303 61 53 59.202 55.697 61zM53 46c-4.411 0-8-3.589-8-8v-8h16v8c0 4.411-3.589 8-8 8z"/><path d="M53 42v2c3.309 0 6-2.691 6-6h-2c0 2.206-1.794 4-4 4zM51.553 11.696l.121.061a3.962 3.962 0 0 1 1.999 2.348l.373 1.194a.998.998 0 0 0 1.909-.001l.373-1.193a3.96 3.96 0 0 1 2.003-2.351l.121-.061a.998.998 0 0 0-.005-1.787 3.937 3.937 0 0 1-2.048-2.521l-.431-1.639a1.001 1.001 0 0 0-1.935 0l-.431 1.639a3.941 3.941 0 0 1-2.049 2.522.998.998 0 0 0 0 1.789zM55 9.237a5.959 5.959 0 0 0 1.215 1.542A5.987 5.987 0 0 0 55 12.218a5.968 5.968 0 0 0-1.215-1.439A5.959 5.959 0 0 0 55 9.237zM43.447 49.906a3.937 3.937 0 0 1-2.048-2.521l-.431-1.639a1.001 1.001 0 0 0-1.935 0l-.431 1.639a3.941 3.941 0 0 1-2.049 2.522.998.998 0 0 0 0 1.789l.121.061a3.962 3.962 0 0 1 1.999 2.348l.373 1.194a.998.998 0 0 0 1.909-.001l.373-1.193a3.96 3.96 0 0 1 2.003-2.351l.121-.061a.998.998 0 0 0-.005-1.787zM40 52.219a5.968 5.968 0 0 0-1.215-1.439A5.959 5.959 0 0 0 40 49.238a5.959 5.959 0 0 0 1.215 1.542A5.949 5.949 0 0 0 40 52.219z"/></svg>