<svg xmlns="http://www.w3.org/2000/svg" viewBox="0 0 64 64"><path fill="#976949" d="M20 22h24v20H20z"/><path fill="#ac876d" d="M20 22v16.672c1.133.204 2.295.328 3.487.328 9.927 0 18.104-7.414 19.334-17z"/><path fill="#88929f" d="M30 6h4v16h-4zM8 42h48v4H8z"/><path fill="#c1c8d1" d="M14 46a4 4 0 0 0 4 4h28a4 4 0 0 0 4-4z"/><g fill="#88929f"><path d="M29 50h6v5h-6zM19 50l-3 12h4l3-12zM45 50l3 12h-4l-3-12z"/></g><path fill="#c1c8d1" d="M22 2h20v4H22z"/><path fill="#88929f" d="M36 12h8a8 8 0 0 1 8 8v22h-4V20a4 4 0 0 0-4-4h-8zM28 12h-8a8 8 0 0 0-8 8v22h4V20a4 4 0 0 1 4-4h8z"/><path fill="#c1c8d1" d="M28 10h8v8h-8z"/><path d="M56 41h-3V20c0-4.963-4.038-9-9-9h-7v-1a1 1 0 0 0-1-1h-1V7h7a1 1 0 0 0 1-1V2a1 1 0 0 0-1-1H22a1 1 0 0 0-1 1v4a1 1 0 0 0 1 1h7v2h-1a1 1 0 0 0-1 1v1h-7c-4.962 0-9 4.037-9 9v21H8a1 1 0 0 0-1 1v4a1 1 0 0 0 1 1h5.101a4.997 4.997 0 0 0 4.625 3.972L15.03 61.758A.998.998 0 0 0 16 63h4a.999.999 0 0 0 .97-.758L23.781 51H28v4a1 1 0 0 0 1 1h6a1 1 0 0 0 1-1v-4h4.219l2.811 11.242A.999.999 0 0 0 44 63h4a.998.998 0 0 0 .97-1.242l-2.696-10.786A4.997 4.997 0 0 0 50.899 47H56a1 1 0 0 0 1-1v-4a1 1 0 0 0-1-1zM44 13c3.86 0 7 3.141 7 7v21h-2V20c0-2.757-2.243-5-5-5h-7v-2zm-7 5v-1h7c1.654 0 3 1.346 3 3v21h-2V22a1 1 0 0 0-1-1h-9v-2h1a1 1 0 0 0 1-1zM21 41V23h4v18zm6-18h4v18h-4zm6-4v2h-2v-2zm0 4h4v18h-4zm6 0h4v18h-4zM23 3h18v2H23zm8 4h2v2h-2zm-2 4h6v6h-6zm0 8v2h-9a1 1 0 0 0-1 1v19h-2V20c0-1.654 1.346-3 3-3h7v1a1 1 0 0 0 1 1zm-16 1c0-3.859 3.14-7 7-7h7v2h-7c-2.757 0-5 2.243-5 5v21h-2zm6.219 41h-1.938l2.5-10h1.938zM34 54h-4v-3h4zm10.781 7-2.5-10h1.938l2.5 10zM46 49H18a2.996 2.996 0 0 1-2.816-2h33.631A2.994 2.994 0 0 1 46 49zm9-4H9v-2h46z"/></svg>