<svg xmlns="http://www.w3.org/2000/svg" viewBox="0 0 60 60"><g fill="none" fill-rule="nonzero"><path fill="#e91e63" d="M37 44a1 1 0 0 1-1 1H24a1 1 0 0 1-1-1 2.152 2.152 0 0 1 .72-1.82 4.865 4.865 0 0 1 1.93-.75A3 3 0 0 0 28 38.51V31.5a.979.979 0 0 0-.64-.94A8.005 8.005 0 0 1 22 23v-2c2.67 0 2.67 2 5.33 2s2.67-2 5.34-2 2.66 2 5.33 2a8.005 8.005 0 0 1-5.36 7.56.979.979 0 0 0-.64.94v7.01a3 3 0 0 0 2.35 2.92c1.61.37 2.65.78 2.65 2.57z"/><path fill="#ad1457" d="M34.35 41.43A3 3 0 0 1 32 38.51V31.5a.979.979 0 0 1 .64-.94A8.005 8.005 0 0 0 38 23c-2.67 0-2.67-2-5.33-2a3.782 3.782 0 0 0-1.5.28C32.473 21.83 32.956 23 35 23a8.005 8.005 0 0 1-5.36 7.56.979.979 0 0 0-.64.94v7.01a3 3 0 0 0 2.35 2.92c1.61.37 2.65.78 2.65 2.57a1 1 0 0 1-1 1h3a1 1 0 0 0 1-1c0-1.79-1.04-2.2-2.65-2.57z"/><path fill="#02a9f4" d="M38 16v7c-2.67 0-2.67-2-5.33-2s-2.67 2-5.34 2-2.66-2-5.33-2v-5a1 1 0 0 1 1-1h14a1 1 0 0 1 1 1z"/><path fill="#0377bc" d="M37 15h-3a1 1 0 0 1 1 1v5.758A4.425 4.425 0 0 0 38 23v-7a1 1 0 0 0-1-1z"/><path fill="#02a9f4" d="M23 0a1 1 0 0 0-1 1v4h-5V1a1 1 0 0 0-2 0v10a1 1 0 0 0 2 0V7h5v4a1 1 0 0 0 2 0V1a1 1 0 0 0-1-1zM44 0a1 1 0 0 0-1 1v4h-5V1a1 1 0 0 0-2 0v10a1 1 0 0 0 2 0V7h5v4a1 1 0 0 0 2 0V1a1 1 0 0 0-1-1zM23 48a1 1 0 0 0-1 1v4h-5v-4a1 1 0 0 0-2 0v10a1 1 0 0 0 2 0v-4h5v4a1 1 0 0 0 2 0V49a1 1 0 0 0-1-1zM44 48a1 1 0 0 0-1 1v4h-5v-4a1 1 0 0 0-2 0v10a1 1 0 0 0 2 0v-4h5v4a1 1 0 0 0 2 0V49a1 1 0 0 0-1-1z"/><path fill="#f44335" d="M4 15h1a2 2 0 0 1 2 2 1 1 0 0 0 2 0 4 4 0 0 0-4-4H4a4 4 0 0 0-4 4v4a4 4 0 0 0 4 4h1a4 4 0 0 0 4-4 1 1 0 0 0-2 0 2 2 0 0 1-2 2H4a2 2 0 0 1-2-2v-4a2 2 0 0 1 2-2zM4 37h1a2 2 0 0 1 2 2 1 1 0 0 0 2 0 4 4 0 0 0-4-4H4a4 4 0 0 0-4 4v4a4 4 0 0 0 4 4h1a4 4 0 0 0 4-4 1 1 0 0 0-2 0 2 2 0 0 1-2 2H4a2 2 0 0 1-2-2v-4a2 2 0 0 1 2-2zM59 20a1 1 0 0 0-1 1 2 2 0 0 1-2 2h-1a2 2 0 0 1-2-2v-4a2 2 0 0 1 2-2h1a2 2 0 0 1 2 2 1 1 0 0 0 2 0 4 4 0 0 0-4-4h-1a4 4 0 0 0-4 4v4a4 4 0 0 0 4 4h1a4 4 0 0 0 4-4 1 1 0 0 0-1-1zM55 37h1a2 2 0 0 1 2 2 1 1 0 0 0 2 0 4 4 0 0 0-4-4h-1a4 4 0 0 0-4 4v4a4 4 0 0 0 4 4h1a4 4 0 0 0 4-4 1 1 0 0 0-2 0 2 2 0 0 1-2 2h-1a2 2 0 0 1-2-2v-4a2 2 0 0 1 2-2z"/><g fill="#000"><path d="M12.707 7.293a1 1 0 0 0-1.414 0l-3 3a1 1 0 1 0 1.414 1.414l3-3a1 1 0 0 0 0-1.414zM9.707 48.293a1 1 0 0 0-1.414 1.414l3 3a1 1 0 0 0 1.414-1.414zM51.707 10.293l-3-3a1 1 0 1 0-1.414 1.414l3 3a1 1 0 0 0 1.414-1.414zM50.293 48.293l-3 3a1 1 0 1 0 1.414 1.414l3-3a1 1 0 0 0-1.414-1.414zM3 28v4a1 1 0 0 0 2 0v-4a1 1 0 0 0-2 0zM55 28v4a1 1 0 0 0 2 0v-4a1 1 0 0 0-2 0zM33 7a1 1 0 0 0 0-2h-6a1 1 0 0 0 0 2zM27 53a1 1 0 0 0 0 2h6a1 1 0 0 0 0-2zM39 23v-7a2 2 0 0 0-2-2H23a2 2 0 0 0-2 2v7a9.018 9.018 0 0 0 6 8.5v7.008a2 2 0 0 1-1.573 1.951C24.145 40.752 22 41.242 22 44a2 2 0 0 0 2 2h12a2 2 0 0 0 2-2c0-2.758-2.145-3.248-3.427-3.542A2 2 0 0 1 33 38.508V31.5h-.03A9.014 9.014 0 0 0 39 23zm-2-7v5.831a4.081 4.081 0 0 1-1.067-.631 5.049 5.049 0 0 0-6.535 0 3.068 3.068 0 0 1-4.132 0A5.182 5.182 0 0 0 23 20.1V16zm-4.676 13.611A1.97 1.97 0 0 0 31 31.5v7.008a3.989 3.989 0 0 0 3.127 3.9C35.816 42.794 36 43.072 36 44H24c0-.928.184-1.206 1.873-1.591A3.991 3.991 0 0 0 29 38.508V31.5a1.966 1.966 0 0 0-1.31-1.884A7.012 7.012 0 0 1 23 23v-.83c.385.155.744.367 1.065.63a5.046 5.046 0 0 0 6.533 0 3.07 3.07 0 0 1 4.134 0c.636.534 1.39.91 2.2 1.094a7 7 0 0 1-4.608 5.717z"/></g></g></svg>